<svg xmlns="http://www.w3.org/2000/svg" width="954" height="1696" viewBox="0 0 954 1696"><rect width="954" height="1696" fill="#FFFFFF"/><line x1="47.13" y1="47.13" x2="906.87" y2="47.13" stroke="#999999" stroke-width="1.41"/><line x1="477.00" y1="47.13" x2="477.00" y2="63.88" stroke="#999999" stroke-width="1.41"/><g fill="#999999" transform="translate(68.07,183.16) scale(1.176991)"><path transform="translate(0.0000,0)" d="M -0.0625 -16.03125 L 13.5 -16.03125 L 13.5 -14.21875 L 7.8125 -14.21875 L 7.8125 0 L 5.625 0 L 5.625 -14.21875 L -0.0625 -14.21875 Z M -0.0625 -16.03125"/><path transform="translate(13.4385,0)" d="M 2.15625 -16.03125 L 4.328125 -16.03125 L 4.328125 0 L 2.15625 0 Z M 2.15625 -16.03125"/><path transform="translate(19.9268,0)" d="M -0.0625 -16.03125 L 13.5 -16.03125 L 13.5 -14.21875 L 7.8125 -14.21875 L 7.8125 0 L 5.625 0 L 5.625 -14.21875 L -0.0625 -14.21875 Z M -0.0625 -16.03125"/><path transform="translate(33.3652,0)" d="M 2.15625 -16.03125 L 4.328125 -16.03125 L 4.328125 -1.828125 L 12.140625 -1.828125 L 12.140625 0 L 2.15625 0 Z M 2.15625 -16.03125"/><path transform="translate(45.6221,0)" d="M 2.15625 -16.03125 L 12.296875 -16.03125 L 12.296875 -14.21875 L 4.328125 -14.21875 L 4.328125 -9.46875 L 11.96875 -9.46875 L 11.96875 -7.640625 L 4.328125 -7.640625 L 4.328125 -1.828125 L 12.5 -1.828125 L 12.5 0 L 2.15625 0 Z M 2.15625 -16.03125"/><path transform="translate(66.5156,0)" d="M 5.59375 -16.03125 L 7.40625 -16.03125 L 1.828125 2.046875 L 0 2.046875 Z M 5.59375 -16.03125"/><path transform="translate(80.9209,0)" d="M 2.15625 -16.03125 L 5.078125 -16.03125 L 12.1875 -2.625 L 12.1875 -16.03125 L 14.296875 -16.03125 L 14.296875 0 L 11.375 0 L 4.265625 -13.421875 L 4.265625 0 L 2.15625 0 Z M 2.15625 -16.03125"/><path transform="translate(97.3779,0)" d="M 8.671875 -14.5625 C 7.097656 -14.5625 5.847656 -13.972656 4.921875 -12.796875 C 3.992188 -11.628906 3.53125 -10.03125 3.53125 -8 C 3.53125 -5.976562 3.992188 -4.378906 4.921875 -3.203125 C 5.847656 -2.035156 7.097656 -1.453125 8.671875 -1.453125 C 10.242188 -1.453125 11.488281 -2.035156 12.40625 -3.203125 C 13.332031 -4.378906 13.796875 -5.976562 13.796875 -8 C 13.796875 -10.03125 13.332031 -11.628906 12.40625 -12.796875 C 11.488281 -13.972656 10.242188 -14.5625 8.671875 -14.5625 Z M 8.671875 -16.328125 C 10.921875 -16.328125 12.71875 -15.570312 14.0625 -14.0625 C 15.40625 -12.5625 16.078125 -10.539062 16.078125 -8 C 16.078125 -5.476562 15.40625 -3.460938 14.0625 -1.953125 C 12.71875 -0.441406 10.921875 0.3125 8.671875 0.3125 C 6.410156 0.3125 4.601562 -0.4375 3.25 -1.9375 C 1.90625 -3.445312 1.234375 -5.46875 1.234375 -8 C 1.234375 -10.539062 1.90625 -12.5625 3.25 -14.0625 C 4.601562 -15.570312 6.410156 -16.328125 8.671875 -16.328125 Z M 8.671875 -16.328125"/><path transform="translate(114.6943,0)" d="M 2.359375 -2.734375 L 4.625 -2.734375 L 4.625 0 L 2.359375 0 Z M 2.359375 -2.734375"/></g><line x1="47.13" y1="198.87" x2="906.87" y2="198.87" stroke="#999999" stroke-width="1.41"/><line x1="47.63" y1="198.87" x2="47.63" y2="1644.07" stroke="#999999" stroke-width="1.17"/><line x1="68.57" y1="198.87" x2="68.57" y2="1644.07" stroke="#999999" stroke-width="1.17"/><line x1="89.52" y1="198.87" x2="89.52" y2="1644.07" stroke="#999999" stroke-width="1.17"/><line x1="110.46" y1="198.87" x2="110.46" y2="1644.07" stroke="#999999" stroke-width="1.17"/><line x1="131.41" y1="198.87" x2="131.41" y2="1644.07" stroke="#999999" stroke-width="1.17"/><line x1="152.35" y1="198.87" x2="152.35" y2="1644.07" stroke="#999999" stroke-width="1.17"/><line x1="173.30" y1="198.87" x2="173.30" y2="1644.07" stroke="#999999" stroke-width="1.17"/><line x1="194.24" y1="198.87" x2="194.24" y2="1644.07" stroke="#999999" stroke-width="1.17"/><line x1="215.19" y1="198.87" x2="215.19" y2="1644.07" stroke="#999999" stroke-width="1.17"/><line x1="236.13" y1="198.87" x2="236.13" y2="1644.07" stroke="#999999" stroke-width="1.17"/><line x1="257.08" y1="198.87" x2="257.08" y2="1644.07" stroke="#999999" stroke-width="1.17"/><line x1="278.02" y1="198.87" x2="278.02" y2="1644.07" stroke="#999999" stroke-width="1.17"/><line x1="298.97" y1="198.87" x2="298.97" y2="1644.07" stroke="#999999" stroke-width="1.17"/><line x1="319.91" y1="198.87" x2="319.91" y2="1644.07" stroke="#999999" stroke-width="1.17"/><line x1="340.86" y1="198.87" x2="340.86" y2="1644.07" stroke="#999999" stroke-width="1.17"/><line x1="361.80" y1="198.87" x2="361.80" y2="1644.07" stroke="#999999" stroke-width="1.17"/><line x1="382.75" y1="198.87" x2="382.75" y2="1644.07" stroke="#999999" stroke-width="1.17"/><line x1="403.69" y1="198.87" x2="403.69" y2="1644.07" stroke="#999999" stroke-width="1.17"/><line x1="424.64" y1="198.87" x2="424.64" y2="1644.07" stroke="#999999" stroke-width="1.17"/><line x1="445.58" y1="198.87" x2="445.58" y2="1644.07" stroke="#999999" stroke-width="1.17"/><line x1="466.53" y1="198.87" x2="466.53" y2="1644.07" stroke="#999999" stroke-width="1.17"/><line x1="487.47" y1="198.87" x2="487.47" y2="1644.07" stroke="#999999" stroke-width="1.17"/><line x1="508.42" y1="198.87" x2="508.42" y2="1644.07" stroke="#999999" stroke-width="1.17"/><line x1="529.36" y1="198.87" x2="529.36" y2="1644.07" stroke="#999999" stroke-width="1.17"/><line x1="550.31" y1="198.87" x2="550.31" y2="1644.07" stroke="#999999" stroke-width="1.17"/><line x1="571.25" y1="198.87" x2="571.25" y2="1644.07" stroke="#999999" stroke-width="1.17"/><line x1="592.20" y1="198.87" x2="592.20" y2="1644.07" stroke="#999999" stroke-width="1.17"/><line x1="613.14" y1="198.87" x2="613.14" y2="1644.07" stroke="#999999" stroke-width="1.17"/><line x1="634.09" y1="198.87" x2="634.09" y2="1644.07" stroke="#999999" stroke-width="1.17"/><line x1="655.03" y1="198.87" x2="655.03" y2="1644.07" stroke="#999999" stroke-width="1.17"/><line x1="675.98" y1="198.87" x2="675.98" y2="1644.07" stroke="#999999" stroke-width="1.17"/><line x1="696.92" y1="198.87" x2="696.92" y2="1644.07" stroke="#999999" stroke-width="1.17"/><line x1="717.87" y1="198.87" x2="717.87" y2="1644.07" stroke="#999999" stroke-width="1.17"/><line x1="738.81" y1="198.87" x2="738.81" y2="1644.07" stroke="#999999" stroke-width="1.17"/><line x1="759.76" y1="198.87" x2="759.76" y2="1644.07" stroke="#999999" stroke-width="1.17"/><line x1="780.70" y1="198.87" x2="780.70" y2="1644.07" stroke="#999999" stroke-width="1.17"/><line x1="801.65" y1="198.87" x2="801.65" y2="1644.07" stroke="#999999" stroke-width="1.17"/><line x1="822.59" y1="198.87" x2="822.59" y2="1644.07" stroke="#999999" stroke-width="1.17"/><line x1="843.54" y1="198.87" x2="843.54" y2="1644.07" stroke="#999999" stroke-width="1.17"/><line x1="864.48" y1="198.87" x2="864.48" y2="1644.07" stroke="#999999" stroke-width="1.17"/><line x1="885.43" y1="198.87" x2="885.43" y2="1644.07" stroke="#999999" stroke-width="1.17"/><line x1="906.37" y1="198.87" x2="906.37" y2="1644.07" stroke="#999999" stroke-width="1.17"/><line x1="47.63" y1="198.87" x2="906.37" y2="198.87" stroke="#999999" stroke-width="1.17"/><line x1="47.63" y1="219.82" x2="906.37" y2="219.82" stroke="#999999" stroke-width="1.17"/><line x1="47.63" y1="240.76" x2="906.37" y2="240.76" stroke="#999999" stroke-width="1.17"/><line x1="47.63" y1="261.71" x2="906.37" y2="261.71" stroke="#999999" stroke-width="1.17"/><line x1="47.63" y1="282.65" x2="906.37" y2="282.65" stroke="#999999" stroke-width="1.17"/><line x1="47.63" y1="303.60" x2="906.37" y2="303.60" stroke="#999999" stroke-width="1.17"/><line x1="47.63" y1="324.54" x2="906.37" y2="324.54" stroke="#999999" stroke-width="1.17"/><line x1="47.63" y1="345.49" x2="906.37" y2="345.49" stroke="#999999" stroke-width="1.17"/><line x1="47.63" y1="366.43" x2="906.37" y2="366.43" stroke="#999999" stroke-width="1.17"/><line x1="47.63" y1="387.38" x2="906.37" y2="387.38" stroke="#999999" stroke-width="1.17"/><line x1="47.63" y1="408.32" x2="906.37" y2="408.32" stroke="#999999" stroke-width="1.17"/><line x1="47.63" y1="429.27" x2="906.37" y2="429.27" stroke="#999999" stroke-width="1.17"/><line x1="47.63" y1="450.21" x2="906.37" y2="450.21" stroke="#999999" stroke-width="1.17"/><line x1="47.63" y1="471.16" x2="906.37" y2="471.16" stroke="#999999" stroke-width="1.17"/><line x1="47.63" y1="492.10" x2="906.37" y2="492.10" stroke="#999999" stroke-width="1.17"/><line x1="47.63" y1="513.04" x2="906.37" y2="513.04" stroke="#999999" stroke-width="1.17"/><line x1="47.63" y1="533.99" x2="906.37" y2="533.99" stroke="#999999" stroke-width="1.17"/><line x1="47.63" y1="554.93" x2="906.37" y2="554.93" stroke="#999999" stroke-width="1.17"/><line x1="47.63" y1="575.88" x2="906.37" y2="575.88" stroke="#999999" stroke-width="1.17"/><line x1="47.63" y1="596.82" x2="906.37" y2="596.82" stroke="#999999" stroke-width="1.17"/><line x1="47.63" y1="617.77" x2="906.37" y2="617.77" stroke="#999999" stroke-width="1.17"/><line x1="47.63" y1="638.71" x2="906.37" y2="638.71" stroke="#999999" stroke-width="1.17"/><line x1="47.63" y1="659.66" x2="906.37" y2="659.66" stroke="#999999" stroke-width="1.17"/><line x1="47.63" y1="680.60" x2="906.37" y2="680.60" stroke="#999999" stroke-width="1.17"/><line x1="47.63" y1="701.55" x2="906.37" y2="701.55" stroke="#999999" stroke-width="1.17"/><line x1="47.63" y1="722.49" x2="906.37" y2="722.49" stroke="#999999" stroke-width="1.17"/><line x1="47.63" y1="743.44" x2="906.37" y2="743.44" stroke="#999999" stroke-width="1.17"/><line x1="47.63" y1="764.38" x2="906.37" y2="764.38" stroke="#999999" stroke-width="1.17"/><line x1="47.63" y1="785.33" x2="906.37" y2="785.33" stroke="#999999" stroke-width="1.17"/><line x1="47.63" y1="806.27" x2="906.37" y2="806.27" stroke="#999999" stroke-width="1.17"/><line x1="47.63" y1="827.22" x2="906.37" y2="827.22" stroke="#999999" stroke-width="1.17"/><line x1="47.63" y1="848.16" x2="906.37" y2="848.16" stroke="#999999" stroke-width="1.17"/><line x1="47.63" y1="869.11" x2="906.37" y2="869.11" stroke="#999999" stroke-width="1.17"/><line x1="47.63" y1="890.05" x2="906.37" y2="890.05" stroke="#999999" stroke-width="1.17"/><line x1="47.63" y1="911.00" x2="906.37" y2="911.00" stroke="#999999" stroke-width="1.17"/><line x1="47.63" y1="931.94" x2="906.37" y2="931.94" stroke="#999999" stroke-width="1.17"/><line x1="47.63" y1="952.89" x2="906.37" y2="952.89" stroke="#999999" stroke-width="1.17"/><line x1="47.63" y1="973.83" x2="906.37" y2="973.83" stroke="#999999" stroke-width="1.17"/><line x1="47.63" y1="994.78" x2="906.37" y2="994.78" stroke="#999999" stroke-width="1.17"/><line x1="47.63" y1="1015.72" x2="906.37" y2="1015.72" stroke="#999999" stroke-width="1.17"/><line x1="47.63" y1="1036.67" x2="906.37" y2="1036.67" stroke="#999999" stroke-width="1.17"/><line x1="47.63" y1="1057.61" x2="906.37" y2="1057.61" stroke="#999999" stroke-width="1.17"/><line x1="47.63" y1="1078.56" x2="906.37" y2="1078.56" stroke="#999999" stroke-width="1.17"/><line x1="47.63" y1="1099.50" x2="906.37" y2="1099.50" stroke="#999999" stroke-width="1.17"/><line x1="47.63" y1="1120.45" x2="906.37" y2="1120.45" stroke="#999999" stroke-width="1.17"/><line x1="47.63" y1="1141.39" x2="906.37" y2="1141.39" stroke="#999999" stroke-width="1.17"/><line x1="47.63" y1="1162.34" x2="906.37" y2="1162.34" stroke="#999999" stroke-width="1.17"/><line x1="47.63" y1="1183.28" x2="906.37" y2="1183.28" stroke="#999999" stroke-width="1.17"/><line x1="47.63" y1="1204.23" x2="906.37" y2="1204.23" stroke="#999999" stroke-width="1.17"/><line x1="47.63" y1="1225.17" x2="906.37" y2="1225.17" stroke="#999999" stroke-width="1.17"/><line x1="47.63" y1="1246.12" x2="906.37" y2="1246.12" stroke="#999999" stroke-width="1.17"/><line x1="47.63" y1="1267.06" x2="906.37" y2="1267.06" stroke="#999999" stroke-width="1.17"/><line x1="47.63" y1="1288.01" x2="906.37" y2="1288.01" stroke="#999999" stroke-width="1.17"/><line x1="47.63" y1="1308.95" x2="906.37" y2="1308.95" stroke="#999999" stroke-width="1.17"/><line x1="47.63" y1="1329.90" x2="906.37" y2="1329.90" stroke="#999999" stroke-width="1.17"/><line x1="47.63" y1="1350.84" x2="906.37" y2="1350.84" stroke="#999999" stroke-width="1.17"/><line x1="47.63" y1="1371.79" x2="906.37" y2="1371.79" stroke="#999999" stroke-width="1.17"/><line x1="47.63" y1="1392.73" x2="906.37" y2="1392.73" stroke="#999999" stroke-width="1.17"/><line x1="47.63" y1="1413.67" x2="906.37" y2="1413.67" stroke="#999999" stroke-width="1.17"/><line x1="47.63" y1="1434.62" x2="906.37" y2="1434.62" stroke="#999999" stroke-width="1.17"/><line x1="47.63" y1="1455.56" x2="906.37" y2="1455.56" stroke="#999999" stroke-width="1.17"/><line x1="47.63" y1="1476.51" x2="906.37" y2="1476.51" stroke="#999999" stroke-width="1.17"/><line x1="47.63" y1="1497.45" x2="906.37" y2="1497.45" stroke="#999999" stroke-width="1.17"/><line x1="47.63" y1="1518.40" x2="906.37" y2="1518.40" stroke="#999999" stroke-width="1.17"/><line x1="47.63" y1="1539.34" x2="906.37" y2="1539.34" stroke="#999999" stroke-width="1.17"/><line x1="47.63" y1="1560.29" x2="906.37" y2="1560.29" stroke="#999999" stroke-width="1.17"/><line x1="47.63" y1="1581.23" x2="906.37" y2="1581.23" stroke="#999999" stroke-width="1.17"/><line x1="47.63" y1="1602.18" x2="906.37" y2="1602.18" stroke="#999999" stroke-width="1.17"/><line x1="47.63" y1="1623.12" x2="906.37" y2="1623.12" stroke="#999999" stroke-width="1.17"/><line x1="47.63" y1="1644.07" x2="906.37" y2="1644.07" stroke="#999999" stroke-width="1.17"/></svg>
