<svg xmlns="http://www.w3.org/2000/svg" width="2480" height="3508" viewBox="0 0 2480 3508">
<rect width="2480" height="3508" fill="#FAF4E6"/>
<text x="1574.00" y="160.00" font-family="Helvetica,Arial,sans-serif" font-size="42" fill="#737e99" text-anchor="middle" font-weight="normal">DATUM/DATE</text>
<line x1="80.00" y1="180.00" x2="80.00" y2="3428.00" stroke="#808080" stroke-width="1.0"/>
<line x1="138.00" y1="180.00" x2="138.00" y2="3428.00" stroke="#808080" stroke-width="1.0"/>
<line x1="196.00" y1="180.00" x2="196.00" y2="3428.00" stroke="#808080" stroke-width="1.0"/>
<line x1="254.00" y1="180.00" x2="254.00" y2="3428.00" stroke="#808080" stroke-width="1.0"/>
<line x1="312.00" y1="180.00" x2="312.00" y2="3428.00" stroke="#808080" stroke-width="1.0"/>
<line x1="370.00" y1="180.00" x2="370.00" y2="3428.00" stroke="#808080" stroke-width="1.0"/>
<line x1="428.00" y1="180.00" x2="428.00" y2="3428.00" stroke="#808080" stroke-width="1.0"/>
<line x1="486.00" y1="180.00" x2="486.00" y2="3428.00" stroke="#808080" stroke-width="1.0"/>
<line x1="544.00" y1="180.00" x2="544.00" y2="3428.00" stroke="#808080" stroke-width="1.0"/>
<line x1="602.00" y1="180.00" x2="602.00" y2="3428.00" stroke="#808080" stroke-width="1.0"/>
<line x1="660.00" y1="180.00" x2="660.00" y2="3428.00" stroke="#808080" stroke-width="1.0"/>
<line x1="718.00" y1="180.00" x2="718.00" y2="3428.00" stroke="#808080" stroke-width="1.0"/>
<line x1="776.00" y1="180.00" x2="776.00" y2="3428.00" stroke="#808080" stroke-width="1.0"/>
<line x1="834.00" y1="180.00" x2="834.00" y2="3428.00" stroke="#808080" stroke-width="1.0"/>
<line x1="892.00" y1="180.00" x2="892.00" y2="3428.00" stroke="#808080" stroke-width="1.0"/>
<line x1="950.00" y1="180.00" x2="950.00" y2="3428.00" stroke="#808080" stroke-width="1.0"/>
<line x1="1008.00" y1="180.00" x2="1008.00" y2="3428.00" stroke="#808080" stroke-width="1.0"/>
<line x1="1066.00" y1="180.00" x2="1066.00" y2="3428.00" stroke="#808080" stroke-width="1.0"/>
<line x1="1124.00" y1="180.00" x2="1124.00" y2="3428.00" stroke="#808080" stroke-width="1.0"/>
<line x1="1182.00" y1="180.00" x2="1182.00" y2="3428.00" stroke="#808080" stroke-width="1.0"/>
<line x1="1240.00" y1="180.00" x2="1240.00" y2="3428.00" stroke="#808080" stroke-width="1.0"/>
<line x1="1298.00" y1="180.00" x2="1298.00" y2="3428.00" stroke="#808080" stroke-width="1.0"/>
<line x1="1356.00" y1="180.00" x2="1356.00" y2="3428.00" stroke="#808080" stroke-width="1.0"/>
<line x1="1414.00" y1="180.00" x2="1414.00" y2="3428.00" stroke="#808080" stroke-width="1.0"/>
<line x1="1472.00" y1="180.00" x2="1472.00" y2="3428.00" stroke="#808080" stroke-width="1.0"/>
<line x1="1530.00" y1="180.00" x2="1530.00" y2="3428.00" stroke="#808080" stroke-width="1.0"/>
<line x1="1588.00" y1="180.00" x2="1588.00" y2="3428.00" stroke="#808080" stroke-width="1.0"/>
<line x1="1646.00" y1="180.00" x2="1646.00" y2="3428.00" stroke="#808080" stroke-width="1.0"/>
<line x1="1704.00" y1="180.00" x2="1704.00" y2="3428.00" stroke="#808080" stroke-width="1.0"/>
<line x1="1762.00" y1="180.00" x2="1762.00" y2="3428.00" stroke="#808080" stroke-width="1.0"/>
<line x1="1820.00" y1="180.00" x2="1820.00" y2="3428.00" stroke="#808080" stroke-width="1.0"/>
<line x1="1878.00" y1="180.00" x2="1878.00" y2="3428.00" stroke="#808080" stroke-width="1.0"/>
<line x1="1936.00" y1="180.00" x2="1936.00" y2="3428.00" stroke="#808080" stroke-width="1.0"/>
<line x1="1994.00" y1="180.00" x2="1994.00" y2="3428.00" stroke="#808080" stroke-width="1.0"/>
<line x1="2052.00" y1="180.00" x2="2052.00" y2="3428.00" stroke="#808080" stroke-width="1.0"/>
<line x1="2110.00" y1="180.00" x2="2110.00" y2="3428.00" stroke="#808080" stroke-width="1.0"/>
<line x1="2168.00" y1="180.00" x2="2168.00" y2="3428.00" stroke="#808080" stroke-width="1.0"/>
<line x1="2226.00" y1="180.00" x2="2226.00" y2="3428.00" stroke="#808080" stroke-width="1.0"/>
<line x1="2284.00" y1="180.00" x2="2284.00" y2="3428.00" stroke="#808080" stroke-width="1.0"/>
<line x1="2342.00" y1="180.00" x2="2342.00" y2="3428.00" stroke="#808080" stroke-width="1.0"/>
<line x1="2400.00" y1="180.00" x2="2400.00" y2="3428.00" stroke="#808080" stroke-width="1.0"/>
<line x1="80.00" y1="180.00" x2="2400.00" y2="180.00" stroke="#808080" stroke-width="1.0"/>
<line x1="80.00" y1="238.00" x2="2400.00" y2="238.00" stroke="#808080" stroke-width="1.0"/>
<line x1="80.00" y1="296.00" x2="2400.00" y2="296.00" stroke="#808080" stroke-width="1.0"/>
<line x1="80.00" y1="354.00" x2="2400.00" y2="354.00" stroke="#808080" stroke-width="1.0"/>
<line x1="80.00" y1="412.00" x2="2400.00" y2="412.00" stroke="#808080" stroke-width="1.0"/>
<line x1="80.00" y1="470.00" x2="2400.00" y2="470.00" stroke="#808080" stroke-width="1.0"/>
<line x1="80.00" y1="528.00" x2="2400.00" y2="528.00" stroke="#808080" stroke-width="1.0"/>
<line x1="80.00" y1="586.00" x2="2400.00" y2="586.00" stroke="#808080" stroke-width="1.0"/>
<line x1="80.00" y1="644.00" x2="2400.00" y2="644.00" stroke="#808080" stroke-width="1.0"/>
<line x1="80.00" y1="702.00" x2="2400.00" y2="702.00" stroke="#808080" stroke-width="1.0"/>
<line x1="80.00" y1="760.00" x2="2400.00" y2="760.00" stroke="#808080" stroke-width="1.0"/>
<line x1="80.00" y1="818.00" x2="2400.00" y2="818.00" stroke="#808080" stroke-width="1.0"/>
<line x1="80.00" y1="876.00" x2="2400.00" y2="876.00" stroke="#808080" stroke-width="1.0"/>
<line x1="80.00" y1="934.00" x2="2400.00" y2="934.00" stroke="#808080" stroke-width="1.0"/>
<line x1="80.00" y1="992.00" x2="2400.00" y2="992.00" stroke="#808080" stroke-width="1.0"/>
<line x1="80.00" y1="1050.00" x2="2400.00" y2="1050.00" stroke="#808080" stroke-width="1.0"/>
<line x1="80.00" y1="1108.00" x2="2400.00" y2="1108.00" stroke="#808080" stroke-width="1.0"/>
<line x1="80.00" y1="1166.00" x2="2400.00" y2="1166.00" stroke="#808080" stroke-width="1.0"/>
<line x1="80.00" y1="1224.00" x2="2400.00" y2="1224.00" stroke="#808080" stroke-width="1.0"/>
<line x1="80.00" y1="1282.00" x2="2400.00" y2="1282.00" stroke="#808080" stroke-width="1.0"/>
<line x1="80.00" y1="1340.00" x2="2400.00" y2="1340.00" stroke="#808080" stroke-width="1.0"/>
<line x1="80.00" y1="1398.00" x2="2400.00" y2="1398.00" stroke="#808080" stroke-width="1.0"/>
<line x1="80.00" y1="1456.00" x2="2400.00" y2="1456.00" stroke="#808080" stroke-width="1.0"/>
<line x1="80.00" y1="1514.00" x2="2400.00" y2="1514.00" stroke="#808080" stroke-width="1.0"/>
<line x1="80.00" y1="1572.00" x2="2400.00" y2="1572.00" stroke="#808080" stroke-width="1.0"/>
<line x1="80.00" y1="1630.00" x2="2400.00" y2="1630.00" stroke="#808080" stroke-width="1.0"/>
<line x1="80.00" y1="1688.00" x2="2400.00" y2="1688.00" stroke="#808080" stroke-width="1.0"/>
<line x1="80.00" y1="1746.00" x2="2400.00" y2="1746.00" stroke="#808080" stroke-width="1.0"/>
<line x1="80.00" y1="1804.00" x2="2400.00" y2="1804.00" stroke="#808080" stroke-width="1.0"/>
<line x1="80.00" y1="1862.00" x2="2400.00" y2="1862.00" stroke="#808080" stroke-width="1.0"/>
<line x1="80.00" y1="1920.00" x2="2400.00" y2="1920.00" stroke="#808080" stroke-width="1.0"/>
<line x1="80.00" y1="1978.00" x2="2400.00" y2="1978.00" stroke="#808080" stroke-width="1.0"/>
<line x1="80.00" y1="2036.00" x2="2400.00" y2="2036.00" stroke="#808080" stroke-width="1.0"/>
<line x1="80.00" y1="2094.00" x2="2400.00" y2="2094.00" stroke="#808080" stroke-width="1.0"/>
<line x1="80.00" y1="2152.00" x2="2400.00" y2="2152.00" stroke="#808080" stroke-width="1.0"/>
<line x1="80.00" y1="2210.00" x2="2400.00" y2="2210.00" stroke="#808080" stroke-width="1.0"/>
<line x1="80.00" y1="2268.00" x2="2400.00" y2="2268.00" stroke="#808080" stroke-width="1.0"/>
<line x1="80.00" y1="2326.00" x2="2400.00" y2="2326.00" stroke="#808080" stroke-width="1.0"/>
<line x1="80.00" y1="2384.00" x2="2400.00" y2="2384.00" stroke="#808080" stroke-width="1.0"/>
<line x1="80.00" y1="2442.00" x2="2400.00" y2="2442.00" stroke="#808080" stroke-width="1.0"/>
<line x1="80.00" y1="2500.00" x2="2400.00" y2="2500.00" stroke="#808080" stroke-width="1.0"/>
<line x1="80.00" y1="2558.00" x2="2400.00" y2="2558.00" stroke="#808080" stroke-width="1.0"/>
<line x1="80.00" y1="2616.00" x2="2400.00" y2="2616.00" stroke="#808080" stroke-width="1.0"/>
<line x1="80.00" y1="2674.00" x2="2400.00" y2="2674.00" stroke="#808080" stroke-width="1.0"/>
<line x1="80.00" y1="2732.00" x2="2400.00" y2="2732.00" stroke="#808080" stroke-width="1.0"/>
<line x1="80.00" y1="2790.00" x2="2400.00" y2="2790.00" stroke="#808080" stroke-width="1.0"/>
<line x1="80.00" y1="2848.00" x2="2400.00" y2="2848.00" stroke="#808080" stroke-width="1.0"/>
<line x1="80.00" y1="2906.00" x2="2400.00" y2="2906.00" stroke="#808080" stroke-width="1.0"/>
<line x1="80.00" y1="2964.00" x2="2400.00" y2="2964.00" stroke="#808080" stroke-width="1.0"/>
<line x1="80.00" y1="3022.00" x2="2400.00" y2="3022.00" stroke="#808080" stroke-width="1.0"/>
<line x1="80.00" y1="3080.00" x2="2400.00" y2="3080.00" stroke="#808080" stroke-width="1.0"/>
<line x1="80.00" y1="3138.00" x2="2400.00" y2="3138.00" stroke="#808080" stroke-width="1.0"/>
<line x1="80.00" y1="3196.00" x2="2400.00" y2="3196.00" stroke="#808080" stroke-width="1.0"/>
<line x1="80.00" y1="3254.00" x2="2400.00" y2="3254.00" stroke="#808080" stroke-width="1.0"/>
<line x1="80.00" y1="3312.00" x2="2400.00" y2="3312.00" stroke="#808080" stroke-width="1.0"/>
<line x1="80.00" y1="3370.00" x2="2400.00" y2="3370.00" stroke="#808080" stroke-width="1.0"/>
<line x1="80.00" y1="3428.00" x2="2400.00" y2="3428.00" stroke="#808080" stroke-width="1.0"/>
</svg>
