<svg xmlns="http://www.w3.org/2000/svg" width="2480" height="3508" viewBox="0 0 2480 3508">
<rect width="2480" height="3508" fill="#FAF4E6"/>
<line x1="80.00" y1="120.00" x2="2400.00" y2="120.00" stroke="#999999" stroke-width="1.2"/>
<line x1="1240.00" y1="120.00" x2="1240.00" y2="148.00" stroke="#999999" stroke-width="1.2"/>
<text x="100.00" y="210.00" font-family="Helvetica,Arial,sans-serif" font-size="40" fill="#999999" text-anchor="start" font-weight="normal">TITLE / NO.</text>
<line x1="80.00" y1="176.00" x2="2400.00" y2="176.00" stroke="#999999" stroke-width="1.0" stroke-dasharray="6 6"/>
<line x1="80.00" y1="180.00" x2="80.00" y2="3428.00" stroke="#999999" stroke-width="0.7"/>
<line x1="109.00" y1="180.00" x2="109.00" y2="3428.00" stroke="#999999" stroke-width="0.7"/>
<line x1="138.00" y1="180.00" x2="138.00" y2="3428.00" stroke="#999999" stroke-width="0.7"/>
<line x1="167.00" y1="180.00" x2="167.00" y2="3428.00" stroke="#999999" stroke-width="0.7"/>
<line x1="196.00" y1="180.00" x2="196.00" y2="3428.00" stroke="#999999" stroke-width="0.7"/>
<line x1="225.00" y1="180.00" x2="225.00" y2="3428.00" stroke="#999999" stroke-width="0.7"/>
<line x1="254.00" y1="180.00" x2="254.00" y2="3428.00" stroke="#999999" stroke-width="0.7"/>
<line x1="283.00" y1="180.00" x2="283.00" y2="3428.00" stroke="#999999" stroke-width="0.7"/>
<line x1="312.00" y1="180.00" x2="312.00" y2="3428.00" stroke="#999999" stroke-width="0.7"/>
<line x1="341.00" y1="180.00" x2="341.00" y2="3428.00" stroke="#999999" stroke-width="0.7"/>
<line x1="370.00" y1="180.00" x2="370.00" y2="3428.00" stroke="#999999" stroke-width="0.7"/>
<line x1="399.00" y1="180.00" x2="399.00" y2="3428.00" stroke="#999999" stroke-width="0.7"/>
<line x1="428.00" y1="180.00" x2="428.00" y2="3428.00" stroke="#999999" stroke-width="0.7"/>
<line x1="457.00" y1="180.00" x2="457.00" y2="3428.00" stroke="#999999" stroke-width="0.7"/>
<line x1="486.00" y1="180.00" x2="486.00" y2="3428.00" stroke="#999999" stroke-width="0.7"/>
<line x1="515.00" y1="180.00" x2="515.00" y2="3428.00" stroke="#999999" stroke-width="0.7"/>
<line x1="544.00" y1="180.00" x2="544.00" y2="3428.00" stroke="#999999" stroke-width="0.7"/>
<line x1="573.00" y1="180.00" x2="573.00" y2="3428.00" stroke="#999999" stroke-width="0.7"/>
<line x1="602.00" y1="180.00" x2="602.00" y2="3428.00" stroke="#999999" stroke-width="0.7"/>
<line x1="631.00" y1="180.00" x2="631.00" y2="3428.00" stroke="#999999" stroke-width="0.7"/>
<line x1="660.00" y1="180.00" x2="660.00" y2="3428.00" stroke="#999999" stroke-width="0.7"/>
<line x1="689.00" y1="180.00" x2="689.00" y2="3428.00" stroke="#999999" stroke-width="0.7"/>
<line x1="718.00" y1="180.00" x2="718.00" y2="3428.00" stroke="#999999" stroke-width="0.7"/>
<line x1="747.00" y1="180.00" x2="747.00" y2="3428.00" stroke="#999999" stroke-width="0.7"/>
<line x1="776.00" y1="180.00" x2="776.00" y2="3428.00" stroke="#999999" stroke-width="0.7"/>
<line x1="805.00" y1="180.00" x2="805.00" y2="3428.00" stroke="#999999" stroke-width="0.7"/>
<line x1="834.00" y1="180.00" x2="834.00" y2="3428.00" stroke="#999999" stroke-width="0.7"/>
<line x1="863.00" y1="180.00" x2="863.00" y2="3428.00" stroke="#999999" stroke-width="0.7"/>
<line x1="892.00" y1="180.00" x2="892.00" y2="3428.00" stroke="#999999" stroke-width="0.7"/>
<line x1="921.00" y1="180.00" x2="921.00" y2="3428.00" stroke="#999999" stroke-width="0.7"/>
<line x1="950.00" y1="180.00" x2="950.00" y2="3428.00" stroke="#999999" stroke-width="0.7"/>
<line x1="979.00" y1="180.00" x2="979.00" y2="3428.00" stroke="#999999" stroke-width="0.7"/>
<line x1="1008.00" y1="180.00" x2="1008.00" y2="3428.00" stroke="#999999" stroke-width="0.7"/>
<line x1="1037.00" y1="180.00" x2="1037.00" y2="3428.00" stroke="#999999" stroke-width="0.7"/>
<line x1="1066.00" y1="180.00" x2="1066.00" y2="3428.00" stroke="#999999" stroke-width="0.7"/>
<line x1="1095.00" y1="180.00" x2="1095.00" y2="3428.00" stroke="#999999" stroke-width="0.7"/>
<line x1="1124.00" y1="180.00" x2="1124.00" y2="3428.00" stroke="#999999" stroke-width="0.7"/>
<line x1="1153.00" y1="180.00" x2="1153.00" y2="3428.00" stroke="#999999" stroke-width="0.7"/>
<line x1="1182.00" y1="180.00" x2="1182.00" y2="3428.00" stroke="#999999" stroke-width="0.7"/>
<line x1="1211.00" y1="180.00" x2="1211.00" y2="3428.00" stroke="#999999" stroke-width="0.7"/>
<line x1="1240.00" y1="180.00" x2="1240.00" y2="3428.00" stroke="#999999" stroke-width="0.7"/>
<line x1="1269.00" y1="180.00" x2="1269.00" y2="3428.00" stroke="#999999" stroke-width="0.7"/>
<line x1="1298.00" y1="180.00" x2="1298.00" y2="3428.00" stroke="#999999" stroke-width="0.7"/>
<line x1="1327.00" y1="180.00" x2="1327.00" y2="3428.00" stroke="#999999" stroke-width="0.7"/>
<line x1="1356.00" y1="180.00" x2="1356.00" y2="3428.00" stroke="#999999" stroke-width="0.7"/>
<line x1="1385.00" y1="180.00" x2="1385.00" y2="3428.00" stroke="#999999" stroke-width="0.7"/>
<line x1="1414.00" y1="180.00" x2="1414.00" y2="3428.00" stroke="#999999" stroke-width="0.7"/>
<line x1="1443.00" y1="180.00" x2="1443.00" y2="3428.00" stroke="#999999" stroke-width="0.7"/>
<line x1="1472.00" y1="180.00" x2="1472.00" y2="3428.00" stroke="#999999" stroke-width="0.7"/>
<line x1="1501.00" y1="180.00" x2="1501.00" y2="3428.00" stroke="#999999" stroke-width="0.7"/>
<line x1="1530.00" y1="180.00" x2="1530.00" y2="3428.00" stroke="#999999" stroke-width="0.7"/>
<line x1="1559.00" y1="180.00" x2="1559.00" y2="3428.00" stroke="#999999" stroke-width="0.7"/>
<line x1="1588.00" y1="180.00" x2="1588.00" y2="3428.00" stroke="#999999" stroke-width="0.7"/>
<line x1="1617.00" y1="180.00" x2="1617.00" y2="3428.00" stroke="#999999" stroke-width="0.7"/>
<line x1="1646.00" y1="180.00" x2="1646.00" y2="3428.00" stroke="#999999" stroke-width="0.7"/>
<line x1="1675.00" y1="180.00" x2="1675.00" y2="3428.00" stroke="#999999" stroke-width="0.7"/>
<line x1="1704.00" y1="180.00" x2="1704.00" y2="3428.00" stroke="#999999" stroke-width="0.7"/>
<line x1="1733.00" y1="180.00" x2="1733.00" y2="3428.00" stroke="#999999" stroke-width="0.7"/>
<line x1="1762.00" y1="180.00" x2="1762.00" y2="3428.00" stroke="#999999" stroke-width="0.7"/>
<line x1="1791.00" y1="180.00" x2="1791.00" y2="3428.00" stroke="#999999" stroke-width="0.7"/>
<line x1="1820.00" y1="180.00" x2="1820.00" y2="3428.00" stroke="#999999" stroke-width="0.7"/>
<line x1="1849.00" y1="180.00" x2="1849.00" y2="3428.00" stroke="#999999" stroke-width="0.7"/>
<line x1="1878.00" y1="180.00" x2="1878.00" y2="3428.00" stroke="#999999" stroke-width="0.7"/>
<line x1="1907.00" y1="180.00" x2="1907.00" y2="3428.00" stroke="#999999" stroke-width="0.7"/>
<line x1="1936.00" y1="180.00" x2="1936.00" y2="3428.00" stroke="#999999" stroke-width="0.7"/>
<line x1="1965.00" y1="180.00" x2="1965.00" y2="3428.00" stroke="#999999" stroke-width="0.7"/>
<line x1="1994.00" y1="180.00" x2="1994.00" y2="3428.00" stroke="#999999" stroke-width="0.7"/>
<line x1="2023.00" y1="180.00" x2="2023.00" y2="3428.00" stroke="#999999" stroke-width="0.7"/>
<line x1="2052.00" y1="180.00" x2="2052.00" y2="3428.00" stroke="#999999" stroke-width="0.7"/>
<line x1="2081.00" y1="180.00" x2="2081.00" y2="3428.00" stroke="#999999" stroke-width="0.7"/>
<line x1="2110.00" y1="180.00" x2="2110.00" y2="3428.00" stroke="#999999" stroke-width="0.7"/>
<line x1="2139.00" y1="180.00" x2="2139.00" y2="3428.00" stroke="#999999" stroke-width="0.7"/>
<line x1="2168.00" y1="180.00" x2="2168.00" y2="3428.00" stroke="#999999" stroke-width="0.7"/>
<line x1="2197.00" y1="180.00" x2="2197.00" y2="3428.00" stroke="#999999" stroke-width="0.7"/>
<line x1="2226.00" y1="180.00" x2="2226.00" y2="3428.00" stroke="#999999" stroke-width="0.7"/>
<line x1="2255.00" y1="180.00" x2="2255.00" y2="3428.00" stroke="#999999" stroke-width="0.7"/>
<line x1="2284.00" y1="180.00" x2="2284.00" y2="3428.00" stroke="#999999" stroke-width="0.7"/>
<line x1="2313.00" y1="180.00" x2="2313.00" y2="3428.00" stroke="#999999" stroke-width="0.7"/>
<line x1="2342.00" y1="180.00" x2="2342.00" y2="3428.00" stroke="#999999" stroke-width="0.7"/>
<line x1="2371.00" y1="180.00" x2="2371.00" y2="3428.00" stroke="#999999" stroke-width="0.7"/>
<line x1="2400.00" y1="180.00" x2="2400.00" y2="3428.00" stroke="#999999" stroke-width="0.7"/>
<line x1="80.00" y1="180.00" x2="2400.00" y2="180.00" stroke="#999999" stroke-width="0.7"/>
<line x1="80.00" y1="209.00" x2="2400.00" y2="209.00" stroke="#999999" stroke-width="0.7"/>
<line x1="80.00" y1="238.00" x2="2400.00" y2="238.00" stroke="#999999" stroke-width="0.7"/>
<line x1="80.00" y1="267.00" x2="2400.00" y2="267.00" stroke="#999999" stroke-width="0.7"/>
<line x1="80.00" y1="296.00" x2="2400.00" y2="296.00" stroke="#999999" stroke-width="0.7"/>
<line x1="80.00" y1="325.00" x2="2400.00" y2="325.00" stroke="#999999" stroke-width="0.7"/>
<line x1="80.00" y1="354.00" x2="2400.00" y2="354.00" stroke="#999999" stroke-width="0.7"/>
<line x1="80.00" y1="383.00" x2="2400.00" y2="383.00" stroke="#999999" stroke-width="0.7"/>
<line x1="80.00" y1="412.00" x2="2400.00" y2="412.00" stroke="#999999" stroke-width="0.7"/>
<line x1="80.00" y1="441.00" x2="2400.00" y2="441.00" stroke="#999999" stroke-width="0.7"/>
<line x1="80.00" y1="470.00" x2="2400.00" y2="470.00" stroke="#999999" stroke-width="0.7"/>
<line x1="80.00" y1="499.00" x2="2400.00" y2="499.00" stroke="#999999" stroke-width="0.7"/>
<line x1="80.00" y1="528.00" x2="2400.00" y2="528.00" stroke="#999999" stroke-width="0.7"/>
<line x1="80.00" y1="557.00" x2="2400.00" y2="557.00" stroke="#999999" stroke-width="0.7"/>
<line x1="80.00" y1="586.00" x2="2400.00" y2="586.00" stroke="#999999" stroke-width="0.7"/>
<line x1="80.00" y1="615.00" x2="2400.00" y2="615.00" stroke="#999999" stroke-width="0.7"/>
<line x1="80.00" y1="644.00" x2="2400.00" y2="644.00" stroke="#999999" stroke-width="0.7"/>
<line x1="80.00" y1="673.00" x2="2400.00" y2="673.00" stroke="#999999" stroke-width="0.7"/>
<line x1="80.00" y1="702.00" x2="2400.00" y2="702.00" stroke="#999999" stroke-width="0.7"/>
<line x1="80.00" y1="731.00" x2="2400.00" y2="731.00" stroke="#999999" stroke-width="0.7"/>
<line x1="80.00" y1="760.00" x2="2400.00" y2="760.00" stroke="#999999" stroke-width="0.7"/>
<line x1="80.00" y1="789.00" x2="2400.00" y2="789.00" stroke="#999999" stroke-width="0.7"/>
<line x1="80.00" y1="818.00" x2="2400.00" y2="818.00" stroke="#999999" stroke-width="0.7"/>
<line x1="80.00" y1="847.00" x2="2400.00" y2="847.00" stroke="#999999" stroke-width="0.7"/>
<line x1="80.00" y1="876.00" x2="2400.00" y2="876.00" stroke="#999999" stroke-width="0.7"/>
<line x1="80.00" y1="905.00" x2="2400.00" y2="905.00" stroke="#999999" stroke-width="0.7"/>
<line x1="80.00" y1="934.00" x2="2400.00" y2="934.00" stroke="#999999" stroke-width="0.7"/>
<line x1="80.00" y1="963.00" x2="2400.00" y2="963.00" stroke="#999999" stroke-width="0.7"/>
<line x1="80.00" y1="992.00" x2="2400.00" y2="992.00" stroke="#999999" stroke-width="0.7"/>
<line x1="80.00" y1="1021.00" x2="2400.00" y2="1021.00" stroke="#999999" stroke-width="0.7"/>
<line x1="80.00" y1="1050.00" x2="2400.00" y2="1050.00" stroke="#999999" stroke-width="0.7"/>
<line x1="80.00" y1="1079.00" x2="2400.00" y2="1079.00" stroke="#999999" stroke-width="0.7"/>
<line x1="80.00" y1="1108.00" x2="2400.00" y2="1108.00" stroke="#999999" stroke-width="0.7"/>
<line x1="80.00" y1="1137.00" x2="2400.00" y2="1137.00" stroke="#999999" stroke-width="0.7"/>
<line x1="80.00" y1="1166.00" x2="2400.00" y2="1166.00" stroke="#999999" stroke-width="0.7"/>
<line x1="80.00" y1="1195.00" x2="2400.00" y2="1195.00" stroke="#999999" stroke-width="0.7"/>
<line x1="80.00" y1="1224.00" x2="2400.00" y2="1224.00" stroke="#999999" stroke-width="0.7"/>
<line x1="80.00" y1="1253.00" x2="2400.00" y2="1253.00" stroke="#999999" stroke-width="0.7"/>
<line x1="80.00" y1="1282.00" x2="2400.00" y2="1282.00" stroke="#999999" stroke-width="0.7"/>
<line x1="80.00" y1="1311.00" x2="2400.00" y2="1311.00" stroke="#999999" stroke-width="0.7"/>
<line x1="80.00" y1="1340.00" x2="2400.00" y2="1340.00" stroke="#999999" stroke-width="0.7"/>
<line x1="80.00" y1="1369.00" x2="2400.00" y2="1369.00" stroke="#999999" stroke-width="0.7"/>
<line x1="80.00" y1="1398.00" x2="2400.00" y2="1398.00" stroke="#999999" stroke-width="0.7"/>
<line x1="80.00" y1="1427.00" x2="2400.00" y2="1427.00" stroke="#999999" stroke-width="0.7"/>
<line x1="80.00" y1="1456.00" x2="2400.00" y2="1456.00" stroke="#999999" stroke-width="0.7"/>
<line x1="80.00" y1="1485.00" x2="2400.00" y2="1485.00" stroke="#999999" stroke-width="0.7"/>
<line x1="80.00" y1="1514.00" x2="2400.00" y2="1514.00" stroke="#999999" stroke-width="0.7"/>
<line x1="80.00" y1="1543.00" x2="2400.00" y2="1543.00" stroke="#999999" stroke-width="0.7"/>
<line x1="80.00" y1="1572.00" x2="2400.00" y2="1572.00" stroke="#999999" stroke-width="0.7"/>
<line x1="80.00" y1="1601.00" x2="2400.00" y2="1601.00" stroke="#999999" stroke-width="0.7"/>
<line x1="80.00" y1="1630.00" x2="2400.00" y2="1630.00" stroke="#999999" stroke-width="0.7"/>
<line x1="80.00" y1="1659.00" x2="2400.00" y2="1659.00" stroke="#999999" stroke-width="0.7"/>
<line x1="80.00" y1="1688.00" x2="2400.00" y2="1688.00" stroke="#999999" stroke-width="0.7"/>
<line x1="80.00" y1="1717.00" x2="2400.00" y2="1717.00" stroke="#999999" stroke-width="0.7"/>
<line x1="80.00" y1="1746.00" x2="2400.00" y2="1746.00" stroke="#999999" stroke-width="0.7"/>
<line x1="80.00" y1="1775.00" x2="2400.00" y2="1775.00" stroke="#999999" stroke-width="0.7"/>
<line x1="80.00" y1="1804.00" x2="2400.00" y2="1804.00" stroke="#999999" stroke-width="0.7"/>
<line x1="80.00" y1="1833.00" x2="2400.00" y2="1833.00" stroke="#999999" stroke-width="0.7"/>
<line x1="80.00" y1="1862.00" x2="2400.00" y2="1862.00" stroke="#999999" stroke-width="0.7"/>
<line x1="80.00" y1="1891.00" x2="2400.00" y2="1891.00" stroke="#999999" stroke-width="0.7"/>
<line x1="80.00" y1="1920.00" x2="2400.00" y2="1920.00" stroke="#999999" stroke-width="0.7"/>
<line x1="80.00" y1="1949.00" x2="2400.00" y2="1949.00" stroke="#999999" stroke-width="0.7"/>
<line x1="80.00" y1="1978.00" x2="2400.00" y2="1978.00" stroke="#999999" stroke-width="0.7"/>
<line x1="80.00" y1="2007.00" x2="2400.00" y2="2007.00" stroke="#999999" stroke-width="0.7"/>
<line x1="80.00" y1="2036.00" x2="2400.00" y2="2036.00" stroke="#999999" stroke-width="0.7"/>
<line x1="80.00" y1="2065.00" x2="2400.00" y2="2065.00" stroke="#999999" stroke-width="0.7"/>
<line x1="80.00" y1="2094.00" x2="2400.00" y2="2094.00" stroke="#999999" stroke-width="0.7"/>
<line x1="80.00" y1="2123.00" x2="2400.00" y2="2123.00" stroke="#999999" stroke-width="0.7"/>
<line x1="80.00" y1="2152.00" x2="2400.00" y2="2152.00" stroke="#999999" stroke-width="0.7"/>
<line x1="80.00" y1="2181.00" x2="2400.00" y2="2181.00" stroke="#999999" stroke-width="0.7"/>
<line x1="80.00" y1="2210.00" x2="2400.00" y2="2210.00" stroke="#999999" stroke-width="0.7"/>
<line x1="80.00" y1="2239.00" x2="2400.00" y2="2239.00" stroke="#999999" stroke-width="0.7"/>
<line x1="80.00" y1="2268.00" x2="2400.00" y2="2268.00" stroke="#999999" stroke-width="0.7"/>
<line x1="80.00" y1="2297.00" x2="2400.00" y2="2297.00" stroke="#999999" stroke-width="0.7"/>
<line x1="80.00" y1="2326.00" x2="2400.00" y2="2326.00" stroke="#999999" stroke-width="0.7"/>
<line x1="80.00" y1="2355.00" x2="2400.00" y2="2355.00" stroke="#999999" stroke-width="0.7"/>
<line x1="80.00" y1="2384.00" x2="2400.00" y2="2384.00" stroke="#999999" stroke-width="0.7"/>
<line x1="80.00" y1="2413.00" x2="2400.00" y2="2413.00" stroke="#999999" stroke-width="0.7"/>
<line x1="80.00" y1="2442.00" x2="2400.00" y2="2442.00" stroke="#999999" stroke-width="0.7"/>
<line x1="80.00" y1="2471.00" x2="2400.00" y2="2471.00" stroke="#999999" stroke-width="0.7"/>
<line x1="80.00" y1="2500.00" x2="2400.00" y2="2500.00" stroke="#999999" stroke-width="0.7"/>
<line x1="80.00" y1="2529.00" x2="2400.00" y2="2529.00" stroke="#999999" stroke-width="0.7"/>
<line x1="80.00" y1="2558.00" x2="2400.00" y2="2558.00" stroke="#999999" stroke-width="0.7"/>
<line x1="80.00" y1="2587.00" x2="2400.00" y2="2587.00" stroke="#999999" stroke-width="0.7"/>
<line x1="80.00" y1="2616.00" x2="2400.00" y2="2616.00" stroke="#999999" stroke-width="0.7"/>
<line x1="80.00" y1="2645.00" x2="2400.00" y2="2645.00" stroke="#999999" stroke-width="0.7"/>
<line x1="80.00" y1="2674.00" x2="2400.00" y2="2674.00" stroke="#999999" stroke-width="0.7"/>
<line x1="80.00" y1="2703.00" x2="2400.00" y2="2703.00" stroke="#999999" stroke-width="0.7"/>
<line x1="80.00" y1="2732.00" x2="2400.00" y2="2732.00" stroke="#999999" stroke-width="0.7"/>
<line x1="80.00" y1="2761.00" x2="2400.00" y2="2761.00" stroke="#999999" stroke-width="0.7"/>
<line x1="80.00" y1="2790.00" x2="2400.00" y2="2790.00" stroke="#999999" stroke-width="0.7"/>
<line x1="80.00" y1="2819.00" x2="2400.00" y2="2819.00" stroke="#999999" stroke-width="0.7"/>
<line x1="80.00" y1="2848.00" x2="2400.00" y2="2848.00" stroke="#999999" stroke-width="0.7"/>
<line x1="80.00" y1="2877.00" x2="2400.00" y2="2877.00" stroke="#999999" stroke-width="0.7"/>
<line x1="80.00" y1="2906.00" x2="2400.00" y2="2906.00" stroke="#999999" stroke-width="0.7"/>
<line x1="80.00" y1="2935.00" x2="2400.00" y2="2935.00" stroke="#999999" stroke-width="0.7"/>
<line x1="80.00" y1="2964.00" x2="2400.00" y2="2964.00" stroke="#999999" stroke-width="0.7"/>
<line x1="80.00" y1="2993.00" x2="2400.00" y2="2993.00" stroke="#999999" stroke-width="0.7"/>
<line x1="80.00" y1="3022.00" x2="2400.00" y2="3022.00" stroke="#999999" stroke-width="0.7"/>
<line x1="80.00" y1="3051.00" x2="2400.00" y2="3051.00" stroke="#999999" stroke-width="0.7"/>
<line x1="80.00" y1="3080.00" x2="2400.00" y2="3080.00" stroke="#999999" stroke-width="0.7"/>
<line x1="80.00" y1="3109.00" x2="2400.00" y2="3109.00" stroke="#999999" stroke-width="0.7"/>
<line x1="80.00" y1="3138.00" x2="2400.00" y2="3138.00" stroke="#999999" stroke-width="0.7"/>
<line x1="80.00" y1="3167.00" x2="2400.00" y2="3167.00" stroke="#999999" stroke-width="0.7"/>
<line x1="80.00" y1="3196.00" x2="2400.00" y2="3196.00" stroke="#999999" stroke-width="0.7"/>
<line x1="80.00" y1="3225.00" x2="2400.00" y2="3225.00" stroke="#999999" stroke-width="0.7"/>
<line x1="80.00" y1="3254.00" x2="2400.00" y2="3254.00" stroke="#999999" stroke-width="0.7"/>
<line x1="80.00" y1="3283.00" x2="2400.00" y2="3283.00" stroke="#999999" stroke-width="0.7"/>
<line x1="80.00" y1="3312.00" x2="2400.00" y2="3312.00" stroke="#999999" stroke-width="0.7"/>
<line x1="80.00" y1="3341.00" x2="2400.00" y2="3341.00" stroke="#999999" stroke-width="0.7"/>
<line x1="80.00" y1="3370.00" x2="2400.00" y2="3370.00" stroke="#999999" stroke-width="0.7"/>
<line x1="80.00" y1="3399.00" x2="2400.00" y2="3399.00" stroke="#999999" stroke-width="0.7"/>
<line x1="80.00" y1="3428.00" x2="2400.00" y2="3428.00" stroke="#999999" stroke-width="0.7"/>
</svg>
